<svg width="45" height="43" viewBox="0 0 45 43" fill="none" xmlns="http://www.w3.org/2000/svg">
<mask id="path-1-outside-1_2064_2004" maskUnits="userSpaceOnUse" x="-0.240234" y="-0.0429688" width="45" height="43" fill="black">
<rect fill="white" x="-0.240234" y="-0.0429688" width="45" height="43"/>
<path d="M37.5239 5.25232C32.1286 1.20893 22.1905 0.142133 15.6259 1.5412C-1.91318 5.28078 -3.88187 26.0238 9.44973 32.7799C10.8699 33.4999 10.9368 33.3999 10.8437 33.6475C10.3829 34.8789 8.15265 39.9283 7.231 41.0921C5.58541 43.1703 14.0134 41.7489 19.1363 35.6704C19.6363 35.0766 22.5398 35.5019 23.5391 35.5881C28.7528 35.2289 28.652 35.252 30.9154 34.6305C44.5055 30.9001 48.9075 13.7829 37.5231 5.25155L37.5239 5.25232ZM30.9354 33.0491C27.6158 33.9267 28.899 33.799 24.9724 34.2159C19.7656 34.7689 19.7287 33.8221 18.7093 34.7843C16.3229 37.0356 15.5158 37.6571 12.287 39.3815C11.2192 39.9522 9.29124 40.6783 8.68502 40.6844C8.8835 40.1899 9.32817 40.0353 11.0892 35.8419C12.5409 32.3854 12.1147 33.0591 9.93517 31.6316C7.17637 29.8241 4.89764 28.1851 3.25206 24.4786C0.0639845 17.3002 2.3758 4.06399 19.6879 2.66723C20.6234 2.59185 21.5612 2.5557 22.4982 2.50186C22.5051 2.69569 24.7062 2.40034 27.3573 2.96489C28.8044 3.27254 28.0897 2.94489 29.7006 3.38638C31.7039 3.93554 34.4612 4.57624 37.2492 6.91443C47.1381 15.2096 42.8522 29.8995 30.9362 33.0499L30.9354 33.0491Z"/>
</mask>
<path d="M37.5239 5.25232C32.1286 1.20893 22.1905 0.142133 15.6259 1.5412C-1.91318 5.28078 -3.88187 26.0238 9.44973 32.7799C10.8699 33.4999 10.9368 33.3999 10.8437 33.6475C10.3829 34.8789 8.15265 39.9283 7.231 41.0921C5.58541 43.1703 14.0134 41.7489 19.1363 35.6704C19.6363 35.0766 22.5398 35.5019 23.5391 35.5881C28.7528 35.2289 28.652 35.252 30.9154 34.6305C44.5055 30.9001 48.9075 13.7829 37.5231 5.25155L37.5239 5.25232ZM30.9354 33.0491C27.6158 33.9267 28.899 33.799 24.9724 34.2159C19.7656 34.7689 19.7287 33.8221 18.7093 34.7843C16.3229 37.0356 15.5158 37.6571 12.287 39.3815C11.2192 39.9522 9.29124 40.6783 8.68502 40.6844C8.8835 40.1899 9.32817 40.0353 11.0892 35.8419C12.5409 32.3854 12.1147 33.0591 9.93517 31.6316C7.17637 29.8241 4.89764 28.1851 3.25206 24.4786C0.0639845 17.3002 2.3758 4.06399 19.6879 2.66723C20.6234 2.59185 21.5612 2.5557 22.4982 2.50186C22.5051 2.69569 24.7062 2.40034 27.3573 2.96489C28.8044 3.27254 28.0897 2.94489 29.7006 3.38638C31.7039 3.93554 34.4612 4.57624 37.2492 6.91443C47.1381 15.2096 42.8522 29.8995 30.9362 33.0499L30.9354 33.0491Z" fill="#2A2A2A"/>
<path d="M37.5239 5.25232C32.1286 1.20893 22.1905 0.142133 15.6259 1.5412C-1.91318 5.28078 -3.88187 26.0238 9.44973 32.7799C10.8699 33.4999 10.9368 33.3999 10.8437 33.6475C10.3829 34.8789 8.15265 39.9283 7.231 41.0921C5.58541 43.1703 14.0134 41.7489 19.1363 35.6704C19.6363 35.0766 22.5398 35.5019 23.5391 35.5881C28.7528 35.2289 28.652 35.252 30.9154 34.6305C44.5055 30.9001 48.9075 13.7829 37.5231 5.25155L37.5239 5.25232ZM30.9354 33.0491C27.6158 33.9267 28.899 33.799 24.9724 34.2159C19.7656 34.7689 19.7287 33.8221 18.7093 34.7843C16.3229 37.0356 15.5158 37.6571 12.287 39.3815C11.2192 39.9522 9.29124 40.6783 8.68502 40.6844C8.8835 40.1899 9.32817 40.0353 11.0892 35.8419C12.5409 32.3854 12.1147 33.0591 9.93517 31.6316C7.17637 29.8241 4.89764 28.1851 3.25206 24.4786C0.0639845 17.3002 2.3758 4.06399 19.6879 2.66723C20.6234 2.59185 21.5612 2.5557 22.4982 2.50186C22.5051 2.69569 24.7062 2.40034 27.3573 2.96489C28.8044 3.27254 28.0897 2.94489 29.7006 3.38638C31.7039 3.93554 34.4612 4.57624 37.2492 6.91443C47.1381 15.2096 42.8522 29.8995 30.9362 33.0499L30.9354 33.0491Z" stroke="#2A2A2A" stroke-width="0.4" mask="url(#path-1-outside-1_2064_2004)"/>
<mask id="path-2-outside-2_2064_2004" maskUnits="userSpaceOnUse" x="18.8628" y="16.3047" width="6" height="6" fill="black">
<rect fill="white" x="18.8628" y="16.3047" width="6" height="6"/>
<path d="M21.9755 17.3047C20.6607 17.2993 19.8521 18.5627 19.8629 19.5001C19.8929 22.2599 24.0365 22.4052 24.1111 19.3601C24.1411 18.1313 23.1848 17.3093 21.9762 17.3047H21.9755Z"/>
</mask>
<path d="M21.9755 17.3047C20.6607 17.2993 19.8521 18.5627 19.8629 19.5001C19.8929 22.2599 24.0365 22.4052 24.1111 19.3601C24.1411 18.1313 23.1848 17.3093 21.9762 17.3047H21.9755Z" fill="#2A2A2A"/>
<path d="M21.9755 17.3047C20.6607 17.2993 19.8521 18.5627 19.8629 19.5001C19.8929 22.2599 24.0365 22.4052 24.1111 19.3601C24.1411 18.1313 23.1848 17.3093 21.9762 17.3047H21.9755Z" stroke="#2A2A2A" stroke-width="0.4" mask="url(#path-2-outside-2_2064_2004)"/>
<mask id="path-3-outside-3_2064_2004" maskUnits="userSpaceOnUse" x="10.6084" y="16.1826" width="6" height="6" fill="black">
<rect fill="white" x="10.6084" y="16.1826" width="6" height="6"/>
<path d="M13.7865 17.1849C12.6156 17.1226 11.6232 18.3744 11.6086 19.3787C11.5924 20.4775 12.5726 21.5156 13.6742 21.4664C16.2338 21.6402 16.8885 17.3502 13.7873 17.1849H13.7865Z"/>
</mask>
<path d="M13.7865 17.1849C12.6156 17.1226 11.6232 18.3744 11.6086 19.3787C11.5924 20.4775 12.5726 21.5156 13.6742 21.4664C16.2338 21.6402 16.8885 17.3502 13.7873 17.1849H13.7865Z" fill="#2A2A2A"/>
<path d="M13.7865 17.1849C12.6156 17.1226 11.6232 18.3744 11.6086 19.3787C11.5924 20.4775 12.5726 21.5156 13.6742 21.4664C16.2338 21.6402 16.8885 17.3502 13.7873 17.1849H13.7865Z" stroke="#2A2A2A" stroke-width="0.4" mask="url(#path-3-outside-3_2064_2004)"/>
<mask id="path-4-outside-4_2064_2004" maskUnits="userSpaceOnUse" x="26.8149" y="16.0781" width="6" height="6" fill="black">
<rect fill="white" x="26.8149" y="16.0781" width="6" height="6"/>
<path d="M29.9067 17.084C28.7735 16.9809 27.8142 18.259 27.8149 19.2786C27.8165 20.3897 28.8158 21.3579 29.909 21.3609C32.5986 21.3671 32.9779 17.0332 29.906 17.0847L29.9067 17.084Z"/>
</mask>
<path d="M29.9067 17.084C28.7735 16.9809 27.8142 18.259 27.8149 19.2786C27.8165 20.3897 28.8158 21.3579 29.909 21.3609C32.5986 21.3671 32.9779 17.0332 29.906 17.0847L29.9067 17.084Z" fill="#2A2A2A"/>
<path d="M29.9067 17.084C28.7735 16.9809 27.8142 18.259 27.8149 19.2786C27.8165 20.3897 28.8158 21.3579 29.909 21.3609C32.5986 21.3671 32.9779 17.0332 29.906 17.0847L29.9067 17.084Z" stroke="#2A2A2A" stroke-width="0.4" mask="url(#path-4-outside-4_2064_2004)"/>
</svg>
