<svg width="29" height="27" viewBox="0 0 29 27" fill="none" xmlns="http://www.w3.org/2000/svg">
<g id="Group 6">
<path id="Vector" d="M3.27149 26.3218C11.0883 26.7793 19.2101 26.6268 27.7894 26.6839C28.3995 26.6839 28.7618 24.9875 27.7894 4.74494C27.7894 3.27726 27.656 2.19079 27.6369 1.79052C27.6418 1.73149 27.6342 1.67209 27.6145 1.61624C27.5947 1.56039 27.5634 1.50935 27.5225 1.46648C26.9696 0.875592 23.3663 0.913713 15.2636 1.12338C1.63187 1.44742 0.125711 1.35212 0.125711 2.13361C0.0685148 2.2861 0.926456 26.0931 3.27149 26.3218ZM3.80531 24.9113C2.85205 19.8221 2.1657 9.07175 1.57468 3.04853C7.12268 3.37256 19.763 2.74355 26.1308 2.59107C26.1308 2.59107 26.4739 19.5361 26.6265 25.0066C19.1529 24.8351 11.3552 24.5491 3.72905 24.816L3.80531 24.9113Z" fill="#2A2A2A"/>
<path id="Vector_2" d="M20.8865 7.50748C17.841 10.1702 15.3529 13.4092 13.5654 17.0379C12.1293 15.3191 10.4759 13.7941 8.64657 12.5014C7.52172 11.7199 6.07275 13.2067 7.17854 14.0453C9.35329 15.967 11.3859 18.0437 13.2604 20.2592C13.7561 20.7738 14.2327 20.507 14.6521 19.9542C16.7284 15.9101 19.2893 12.1337 22.2783 8.7083C23.1934 7.69808 21.8779 6.5735 20.8865 7.50748Z" fill="#2A2A2A"/>
</g>
</svg>
