<svg width="36" height="46" viewBox="0 0 36 46" fill="none" xmlns="http://www.w3.org/2000/svg">
<mask id="path-1-outside-1_2064_2014" maskUnits="userSpaceOnUse" x="0" y="-0.0585938" width="36" height="46" fill="black">
<rect fill="white" y="-0.0585938" width="36" height="46"/>
<path d="M5.65487 29.0974C4.32204 34.7801 3.3453 39.6037 3.18251 40.5664C3.07442 40.9852 3.05363 41.4224 3.12147 41.8499C3.66071 43.0196 10.6301 45.3278 11.5153 44.8724C12.4004 44.417 14.6998 39.1483 17.3757 33.714C19.0149 33.7672 20.6551 33.6458 22.2695 33.3517C23.9694 33.0344 25.6236 32.5024 27.1939 31.768C30.6328 30.1532 34.3973 23.2387 34.906 19.7607C35.2875 15.9847 34.5015 12.1817 32.6575 8.88175C24.1212 -6.17904 -0.917734 1.92584 1.11713 18.6532C1.69821 22.4807 3.26369 26.0839 5.65487 29.0974ZM11.8612 41.4255C11.8612 41.5911 11.6781 41.5704 10.8438 41.4255C9.1373 41.2073 7.4851 40.6704 5.97028 39.8418C5.25807 39.4484 5.06476 39.3656 5.13598 39.1897C5.2072 39.0137 5.35982 39.0758 6.45865 39.3863C6.56039 39.3863 9.71442 40.4214 10.6199 40.7423C11.79 41.2806 11.8612 41.2806 11.8612 41.4255ZM11.6781 24.5843C12.7645 24.6416 13.8472 24.4135 14.8219 23.9218C15.7279 24.3684 16.7079 24.6387 17.7114 24.7189C16.0022 27.9588 12.5327 34.5627 11.4135 38.0821L7.09963 36.871C8.11706 34.3247 10.3656 28.3625 11.6577 24.5843H11.6781ZM11.322 23.7252C10.5625 23.6084 9.8616 23.2415 9.3268 22.6806C8.792 22.1196 8.45281 21.3957 8.36124 20.6199C8.07636 18.5496 9.37867 16.231 11.3423 16.7796C12.5734 17.1212 12.726 18.1149 12.5124 19.3674C12.3292 20.2783 11.6679 22.5659 11.3016 23.6838L11.322 23.7252ZM14.0894 21.2409C14.198 20.5636 14.4478 19.9177 14.8219 19.3467C14.9999 19.0354 15.2602 18.7811 15.5731 18.6128C15.8861 18.4444 16.2392 18.3688 16.5923 18.3944C17.3452 18.6221 17.6707 20.0713 17.0501 20.9821C16.4536 21.7874 15.7111 22.4691 14.8626 22.9903C14.5707 22.8159 14.3381 22.5549 14.1963 22.2422C14.0544 21.9294 14.01 21.5801 14.069 21.2409H14.0894ZM4.73918 8.08472C9.29728 2.5055 17.8742 0.290371 24.0704 2.58831C27.4364 3.76382 30.2676 6.14396 32.0369 9.28544C33.7911 12.4255 34.5414 16.0431 34.1836 19.6365C33.7156 22.8557 30.1139 29.5425 26.9497 31.0227C24.0567 32.3652 20.9002 33.0167 17.7216 32.9273C17.3757 32.9273 17.0094 32.9273 16.8771 33.1757C16.2769 34.4178 15.178 36.8193 14.0996 39.0758C13.3548 38.71 12.5825 38.4054 11.79 38.1649C12.9702 34.7284 16.694 27.9795 18.4643 24.7085C19.9982 24.8422 21.5401 24.5713 22.941 23.9218C23.3195 23.7191 23.6334 23.4108 23.8457 23.033C24.058 22.6553 24.16 22.2237 24.1397 21.789C24.1194 21.3544 23.9776 20.9346 23.7311 20.579C23.4845 20.2234 23.1434 19.9467 22.7477 19.7814C21.1707 18.9947 19.7565 20.8786 18.9324 22.4623C18.7085 22.8764 18.4542 23.3629 18.1693 23.9115C17.3463 23.8565 16.5349 23.6858 15.758 23.4043C16.5317 22.8511 17.2179 22.1809 17.7928 21.4169C18.115 20.922 18.2782 20.3376 18.26 19.7443C18.2418 19.151 18.043 18.578 17.6911 18.1046C17.4147 17.778 17.0307 17.5652 16.6112 17.5061C16.1916 17.4471 15.7652 17.5457 15.412 17.7837C14.6995 18.2291 14.1285 18.8743 13.7675 19.6418C13.4066 20.4093 13.271 21.2665 13.3772 22.1104C13.4878 22.5868 13.74 23.0169 14.0996 23.3422C13.4322 23.6234 12.7158 23.7642 11.9935 23.7562C12.4004 22.5348 13.0618 20.33 13.2347 19.4295C13.3432 18.9161 13.3673 18.3879 13.306 17.8665C13.2272 17.4188 13.0231 17.0039 12.718 16.6715C12.413 16.3391 12.0201 16.1035 11.5865 15.9929C9.11414 15.2787 7.29294 18.0631 7.64904 20.6613C7.74963 21.5923 8.1424 22.4656 8.76916 23.1518C9.39592 23.8379 10.2233 24.3003 11.1287 24.4705C9.82634 28.1968 7.79148 34.2108 6.77405 36.7779L4.5357 36.1879C5.97028 28.8593 6.14324 29.0353 5.93975 28.9421C3.62799 25.9434 2.14884 22.369 1.65637 18.591C1.41655 16.7178 1.56712 14.8141 2.09826 13.004C2.62941 11.1938 3.52923 9.51769 4.73918 8.08472ZM18.8611 23.9736C19.5733 22.659 20.9977 19.7814 22.3814 20.4853C22.6582 20.5987 22.8992 20.7869 23.0785 21.0295C23.2578 21.2722 23.3686 21.56 23.3989 21.862C23.3785 23.6838 20.5908 24.0047 18.8204 23.9736H18.8611Z"/>
</mask>
<path d="M5.65487 29.0974C4.32204 34.7801 3.3453 39.6037 3.18251 40.5664C3.07442 40.9852 3.05363 41.4224 3.12147 41.8499C3.66071 43.0196 10.6301 45.3278 11.5153 44.8724C12.4004 44.417 14.6998 39.1483 17.3757 33.714C19.0149 33.7672 20.6551 33.6458 22.2695 33.3517C23.9694 33.0344 25.6236 32.5024 27.1939 31.768C30.6328 30.1532 34.3973 23.2387 34.906 19.7607C35.2875 15.9847 34.5015 12.1817 32.6575 8.88175C24.1212 -6.17904 -0.917734 1.92584 1.11713 18.6532C1.69821 22.4807 3.26369 26.0839 5.65487 29.0974ZM11.8612 41.4255C11.8612 41.5911 11.6781 41.5704 10.8438 41.4255C9.1373 41.2073 7.4851 40.6704 5.97028 39.8418C5.25807 39.4484 5.06476 39.3656 5.13598 39.1897C5.2072 39.0137 5.35982 39.0758 6.45865 39.3863C6.56039 39.3863 9.71442 40.4214 10.6199 40.7423C11.79 41.2806 11.8612 41.2806 11.8612 41.4255ZM11.6781 24.5843C12.7645 24.6416 13.8472 24.4135 14.8219 23.9218C15.7279 24.3684 16.7079 24.6387 17.7114 24.7189C16.0022 27.9588 12.5327 34.5627 11.4135 38.0821L7.09963 36.871C8.11706 34.3247 10.3656 28.3625 11.6577 24.5843H11.6781ZM11.322 23.7252C10.5625 23.6084 9.8616 23.2415 9.3268 22.6806C8.792 22.1196 8.45281 21.3957 8.36124 20.6199C8.07636 18.5496 9.37867 16.231 11.3423 16.7796C12.5734 17.1212 12.726 18.1149 12.5124 19.3674C12.3292 20.2783 11.6679 22.5659 11.3016 23.6838L11.322 23.7252ZM14.0894 21.2409C14.198 20.5636 14.4478 19.9177 14.8219 19.3467C14.9999 19.0354 15.2602 18.7811 15.5731 18.6128C15.8861 18.4444 16.2392 18.3688 16.5923 18.3944C17.3452 18.6221 17.6707 20.0713 17.0501 20.9821C16.4536 21.7874 15.7111 22.4691 14.8626 22.9903C14.5707 22.8159 14.3381 22.5549 14.1963 22.2422C14.0544 21.9294 14.01 21.5801 14.069 21.2409H14.0894ZM4.73918 8.08472C9.29728 2.5055 17.8742 0.290371 24.0704 2.58831C27.4364 3.76382 30.2676 6.14396 32.0369 9.28544C33.7911 12.4255 34.5414 16.0431 34.1836 19.6365C33.7156 22.8557 30.1139 29.5425 26.9497 31.0227C24.0567 32.3652 20.9002 33.0167 17.7216 32.9273C17.3757 32.9273 17.0094 32.9273 16.8771 33.1757C16.2769 34.4178 15.178 36.8193 14.0996 39.0758C13.3548 38.71 12.5825 38.4054 11.79 38.1649C12.9702 34.7284 16.694 27.9795 18.4643 24.7085C19.9982 24.8422 21.5401 24.5713 22.941 23.9218C23.3195 23.7191 23.6334 23.4108 23.8457 23.033C24.058 22.6553 24.16 22.2237 24.1397 21.789C24.1194 21.3544 23.9776 20.9346 23.7311 20.579C23.4845 20.2234 23.1434 19.9467 22.7477 19.7814C21.1707 18.9947 19.7565 20.8786 18.9324 22.4623C18.7085 22.8764 18.4542 23.3629 18.1693 23.9115C17.3463 23.8565 16.5349 23.6858 15.758 23.4043C16.5317 22.8511 17.2179 22.1809 17.7928 21.4169C18.115 20.922 18.2782 20.3376 18.26 19.7443C18.2418 19.151 18.043 18.578 17.6911 18.1046C17.4147 17.778 17.0307 17.5652 16.6112 17.5061C16.1916 17.4471 15.7652 17.5457 15.412 17.7837C14.6995 18.2291 14.1285 18.8743 13.7675 19.6418C13.4066 20.4093 13.271 21.2665 13.3772 22.1104C13.4878 22.5868 13.74 23.0169 14.0996 23.3422C13.4322 23.6234 12.7158 23.7642 11.9935 23.7562C12.4004 22.5348 13.0618 20.33 13.2347 19.4295C13.3432 18.9161 13.3673 18.3879 13.306 17.8665C13.2272 17.4188 13.0231 17.0039 12.718 16.6715C12.413 16.3391 12.0201 16.1035 11.5865 15.9929C9.11414 15.2787 7.29294 18.0631 7.64904 20.6613C7.74963 21.5923 8.1424 22.4656 8.76916 23.1518C9.39592 23.8379 10.2233 24.3003 11.1287 24.4705C9.82634 28.1968 7.79148 34.2108 6.77405 36.7779L4.5357 36.1879C5.97028 28.8593 6.14324 29.0353 5.93975 28.9421C3.62799 25.9434 2.14884 22.369 1.65637 18.591C1.41655 16.7178 1.56712 14.8141 2.09826 13.004C2.62941 11.1938 3.52923 9.51769 4.73918 8.08472ZM18.8611 23.9736C19.5733 22.659 20.9977 19.7814 22.3814 20.4853C22.6582 20.5987 22.8992 20.7869 23.0785 21.0295C23.2578 21.2722 23.3686 21.56 23.3989 21.862C23.3785 23.6838 20.5908 24.0047 18.8204 23.9736H18.8611Z" fill="#2A2A2A"/>
<path d="M5.65487 29.0974C4.32204 34.7801 3.3453 39.6037 3.18251 40.5664C3.07442 40.9852 3.05363 41.4224 3.12147 41.8499C3.66071 43.0196 10.6301 45.3278 11.5153 44.8724C12.4004 44.417 14.6998 39.1483 17.3757 33.714C19.0149 33.7672 20.6551 33.6458 22.2695 33.3517C23.9694 33.0344 25.6236 32.5024 27.1939 31.768C30.6328 30.1532 34.3973 23.2387 34.906 19.7607C35.2875 15.9847 34.5015 12.1817 32.6575 8.88175C24.1212 -6.17904 -0.917734 1.92584 1.11713 18.6532C1.69821 22.4807 3.26369 26.0839 5.65487 29.0974ZM11.8612 41.4255C11.8612 41.5911 11.6781 41.5704 10.8438 41.4255C9.1373 41.2073 7.4851 40.6704 5.97028 39.8418C5.25807 39.4484 5.06476 39.3656 5.13598 39.1897C5.2072 39.0137 5.35982 39.0758 6.45865 39.3863C6.56039 39.3863 9.71442 40.4214 10.6199 40.7423C11.79 41.2806 11.8612 41.2806 11.8612 41.4255ZM11.6781 24.5843C12.7645 24.6416 13.8472 24.4135 14.8219 23.9218C15.7279 24.3684 16.7079 24.6387 17.7114 24.7189C16.0022 27.9588 12.5327 34.5627 11.4135 38.0821L7.09963 36.871C8.11706 34.3247 10.3656 28.3625 11.6577 24.5843H11.6781ZM11.322 23.7252C10.5625 23.6084 9.8616 23.2415 9.3268 22.6806C8.792 22.1196 8.45281 21.3957 8.36124 20.6199C8.07636 18.5496 9.37867 16.231 11.3423 16.7796C12.5734 17.1212 12.726 18.1149 12.5124 19.3674C12.3292 20.2783 11.6679 22.5659 11.3016 23.6838L11.322 23.7252ZM14.0894 21.2409C14.198 20.5636 14.4478 19.9177 14.8219 19.3467C14.9999 19.0354 15.2602 18.7811 15.5731 18.6128C15.8861 18.4444 16.2392 18.3688 16.5923 18.3944C17.3452 18.6221 17.6707 20.0713 17.0501 20.9821C16.4536 21.7874 15.7111 22.4691 14.8626 22.9903C14.5707 22.8159 14.3381 22.5549 14.1963 22.2422C14.0544 21.9294 14.01 21.5801 14.069 21.2409H14.0894ZM4.73918 8.08472C9.29728 2.5055 17.8742 0.290371 24.0704 2.58831C27.4364 3.76382 30.2676 6.14396 32.0369 9.28544C33.7911 12.4255 34.5414 16.0431 34.1836 19.6365C33.7156 22.8557 30.1139 29.5425 26.9497 31.0227C24.0567 32.3652 20.9002 33.0167 17.7216 32.9273C17.3757 32.9273 17.0094 32.9273 16.8771 33.1757C16.2769 34.4178 15.178 36.8193 14.0996 39.0758C13.3548 38.71 12.5825 38.4054 11.79 38.1649C12.9702 34.7284 16.694 27.9795 18.4643 24.7085C19.9982 24.8422 21.5401 24.5713 22.941 23.9218C23.3195 23.7191 23.6334 23.4108 23.8457 23.033C24.058 22.6553 24.16 22.2237 24.1397 21.789C24.1194 21.3544 23.9776 20.9346 23.7311 20.579C23.4845 20.2234 23.1434 19.9467 22.7477 19.7814C21.1707 18.9947 19.7565 20.8786 18.9324 22.4623C18.7085 22.8764 18.4542 23.3629 18.1693 23.9115C17.3463 23.8565 16.5349 23.6858 15.758 23.4043C16.5317 22.8511 17.2179 22.1809 17.7928 21.4169C18.115 20.922 18.2782 20.3376 18.26 19.7443C18.2418 19.151 18.043 18.578 17.6911 18.1046C17.4147 17.778 17.0307 17.5652 16.6112 17.5061C16.1916 17.4471 15.7652 17.5457 15.412 17.7837C14.6995 18.2291 14.1285 18.8743 13.7675 19.6418C13.4066 20.4093 13.271 21.2665 13.3772 22.1104C13.4878 22.5868 13.74 23.0169 14.0996 23.3422C13.4322 23.6234 12.7158 23.7642 11.9935 23.7562C12.4004 22.5348 13.0618 20.33 13.2347 19.4295C13.3432 18.9161 13.3673 18.3879 13.306 17.8665C13.2272 17.4188 13.0231 17.0039 12.718 16.6715C12.413 16.3391 12.0201 16.1035 11.5865 15.9929C9.11414 15.2787 7.29294 18.0631 7.64904 20.6613C7.74963 21.5923 8.1424 22.4656 8.76916 23.1518C9.39592 23.8379 10.2233 24.3003 11.1287 24.4705C9.82634 28.1968 7.79148 34.2108 6.77405 36.7779L4.5357 36.1879C5.97028 28.8593 6.14324 29.0353 5.93975 28.9421C3.62799 25.9434 2.14884 22.369 1.65637 18.591C1.41655 16.7178 1.56712 14.8141 2.09826 13.004C2.62941 11.1938 3.52923 9.51769 4.73918 8.08472ZM18.8611 23.9736C19.5733 22.659 20.9977 19.7814 22.3814 20.4853C22.6582 20.5987 22.8992 20.7869 23.0785 21.0295C23.2578 21.2722 23.3686 21.56 23.3989 21.862C23.3785 23.6838 20.5908 24.0047 18.8204 23.9736H18.8611Z" stroke="#2A2A2A" stroke-width="0.2" mask="url(#path-1-outside-1_2064_2014)"/>
</svg>
