<svg width="34" height="51" viewBox="0 0 34 51" fill="none" xmlns="http://www.w3.org/2000/svg">
<mask id="path-1-outside-1_2064_2019" maskUnits="userSpaceOnUse" x="0" y="0" width="34" height="51" fill="black">
<rect fill="white" width="34" height="51"/>
<path d="M23.1911 40.5732C19.7211 40.7031 16.7511 44.3023 18.0911 47.5715C19.3011 50.4708 23.2111 50.1909 25.6011 49.1411C30.2811 47.1416 28.2911 40.3932 23.1911 40.5732ZM25.9411 48.1914C23.8511 49.5211 19.6511 49.761 18.6011 47.4315C17.5511 45.1021 19.6011 41.8728 22.5511 41.4329C27.0811 40.6131 29.2011 46.1219 25.9411 48.1914ZM1.31111 13.7594C3.1564 14.5509 5.08533 15.1312 7.06111 15.489C7.30111 15.489 7.43111 15.1991 7.49111 15.0191C8.28785 12.5497 9.91266 10.4309 12.0911 9.02056C20.4211 4.12171 28.4411 12.4897 24.9511 20.4079C23.0111 24.7969 17.9511 26.0666 13.8211 27.2263C13.0811 27.4362 13.2511 27.7562 13.9711 29.4758C15.1844 32.3951 16.3811 35.3177 17.5611 38.2437C17.8011 38.8136 18.8211 38.4436 19.2311 38.3637C19.8711 38.2537 23.3711 37.8438 23.4811 36.974C23.5911 36.1042 21.3411 31.4653 20.9111 30.4855C28.8511 28.306 34.2211 19.888 32.4111 11.7399C30.1411 1.63229 19.0711 -0.75715 10.3011 2.15217C5.68111 3.69181 1.08111 7.82084 1.01111 13.0596C1.01111 13.5895 0.911111 13.5895 1.31111 13.7594ZM9.15111 3.2719C17.8411 -0.0873071 29.3111 1.52232 31.6811 11.9299C33.4611 19.6581 28.1311 27.7062 20.6011 29.7557C20.3011 29.8357 19.9811 29.9756 20.5111 31.0254C21.3511 32.735 22.6811 36.1242 22.9811 36.794C21.4103 37.3075 19.7974 37.6822 18.1611 37.9138L13.9811 27.9961C17.9211 27.7362 23.9811 24.6069 25.6611 20.7678C29.0411 12.9996 21.6811 3.76179 12.6811 8.00079C11.2904 8.65921 10.0647 9.62051 9.09393 10.8142C8.12319 12.0079 7.43201 13.4037 7.07111 14.8992L1.47111 13.2596C1.54111 9.00056 5.32111 4.75156 9.15111 3.2719Z"/>
</mask>
<path d="M23.1911 40.5732C19.7211 40.7031 16.7511 44.3023 18.0911 47.5715C19.3011 50.4708 23.2111 50.1909 25.6011 49.1411C30.2811 47.1416 28.2911 40.3932 23.1911 40.5732ZM25.9411 48.1914C23.8511 49.5211 19.6511 49.761 18.6011 47.4315C17.5511 45.1021 19.6011 41.8728 22.5511 41.4329C27.0811 40.6131 29.2011 46.1219 25.9411 48.1914ZM1.31111 13.7594C3.1564 14.5509 5.08533 15.1312 7.06111 15.489C7.30111 15.489 7.43111 15.1991 7.49111 15.0191C8.28785 12.5497 9.91266 10.4309 12.0911 9.02056C20.4211 4.12171 28.4411 12.4897 24.9511 20.4079C23.0111 24.7969 17.9511 26.0666 13.8211 27.2263C13.0811 27.4362 13.2511 27.7562 13.9711 29.4758C15.1844 32.3951 16.3811 35.3177 17.5611 38.2437C17.8011 38.8136 18.8211 38.4436 19.2311 38.3637C19.8711 38.2537 23.3711 37.8438 23.4811 36.974C23.5911 36.1042 21.3411 31.4653 20.9111 30.4855C28.8511 28.306 34.2211 19.888 32.4111 11.7399C30.1411 1.63229 19.0711 -0.75715 10.3011 2.15217C5.68111 3.69181 1.08111 7.82084 1.01111 13.0596C1.01111 13.5895 0.911111 13.5895 1.31111 13.7594ZM9.15111 3.2719C17.8411 -0.0873071 29.3111 1.52232 31.6811 11.9299C33.4611 19.6581 28.1311 27.7062 20.6011 29.7557C20.3011 29.8357 19.9811 29.9756 20.5111 31.0254C21.3511 32.735 22.6811 36.1242 22.9811 36.794C21.4103 37.3075 19.7974 37.6822 18.1611 37.9138L13.9811 27.9961C17.9211 27.7362 23.9811 24.6069 25.6611 20.7678C29.0411 12.9996 21.6811 3.76179 12.6811 8.00079C11.2904 8.65921 10.0647 9.62051 9.09393 10.8142C8.12319 12.0079 7.43201 13.4037 7.07111 14.8992L1.47111 13.2596C1.54111 9.00056 5.32111 4.75156 9.15111 3.2719Z" fill="#2A2A2A"/>
<path d="M23.1911 40.5732C19.7211 40.7031 16.7511 44.3023 18.0911 47.5715C19.3011 50.4708 23.2111 50.1909 25.6011 49.1411C30.2811 47.1416 28.2911 40.3932 23.1911 40.5732ZM25.9411 48.1914C23.8511 49.5211 19.6511 49.761 18.6011 47.4315C17.5511 45.1021 19.6011 41.8728 22.5511 41.4329C27.0811 40.6131 29.2011 46.1219 25.9411 48.1914ZM1.31111 13.7594C3.1564 14.5509 5.08533 15.1312 7.06111 15.489C7.30111 15.489 7.43111 15.1991 7.49111 15.0191C8.28785 12.5497 9.91266 10.4309 12.0911 9.02056C20.4211 4.12171 28.4411 12.4897 24.9511 20.4079C23.0111 24.7969 17.9511 26.0666 13.8211 27.2263C13.0811 27.4362 13.2511 27.7562 13.9711 29.4758C15.1844 32.3951 16.3811 35.3177 17.5611 38.2437C17.8011 38.8136 18.8211 38.4436 19.2311 38.3637C19.8711 38.2537 23.3711 37.8438 23.4811 36.974C23.5911 36.1042 21.3411 31.4653 20.9111 30.4855C28.8511 28.306 34.2211 19.888 32.4111 11.7399C30.1411 1.63229 19.0711 -0.75715 10.3011 2.15217C5.68111 3.69181 1.08111 7.82084 1.01111 13.0596C1.01111 13.5895 0.911111 13.5895 1.31111 13.7594ZM9.15111 3.2719C17.8411 -0.0873071 29.3111 1.52232 31.6811 11.9299C33.4611 19.6581 28.1311 27.7062 20.6011 29.7557C20.3011 29.8357 19.9811 29.9756 20.5111 31.0254C21.3511 32.735 22.6811 36.1242 22.9811 36.794C21.4103 37.3075 19.7974 37.6822 18.1611 37.9138L13.9811 27.9961C17.9211 27.7362 23.9811 24.6069 25.6611 20.7678C29.0411 12.9996 21.6811 3.76179 12.6811 8.00079C11.2904 8.65921 10.0647 9.62051 9.09393 10.8142C8.12319 12.0079 7.43201 13.4037 7.07111 14.8992L1.47111 13.2596C1.54111 9.00056 5.32111 4.75156 9.15111 3.2719Z" stroke="#2A2A2A" stroke-width="0.8" mask="url(#path-1-outside-1_2064_2019)"/>
</svg>
