<svg width="666" height="333" viewBox="0 0 666 565" fill="none" xmlns="http://www.w3.org/2000/svg">
<path fill-rule="evenodd" clip-rule="evenodd" d="M318.501 131.95C316.887 135.46 318.501 135.249 318.852 134.617C319.727 133.134 320.953 131.888 322.422 130.988C323.89 130.089 325.557 129.563 327.276 129.457C328.671 129.419 330.067 129.478 331.453 129.633C333.314 129.879 333.735 130.089 333.91 129.633C334.086 129.177 322.468 123.28 318.501 131.95ZM383.401 112.82C383.446 112.68 383.434 112.529 383.369 112.398C383.303 112.266 383.189 112.166 383.05 112.118C370.028 105.8 361.99 121.139 363.78 121.946C364.412 122.192 364.307 121.665 366.202 119.454C374.486 110.012 383.015 114.084 383.401 112.82ZM375.118 100.079C375.679 100.5 377.294 99.6576 373.679 97.6218C368.8 94.884 358.761 96.0072 358.796 97.2708C358.831 98.5344 373.012 98.9907 375.118 100.079ZM348.126 154.624C346.476 149.254 343.528 122.332 342.053 122.508C340.579 122.683 343.844 157.257 347.283 157.186C349.442 156.984 351.559 156.463 353.566 155.642C354.479 155.291 359.919 153.08 359.428 152.132C358.937 151.184 355.778 154.098 348.126 154.624ZM386.595 147.288C386.798 148.52 386.927 149.762 386.981 151.009C387.613 163.048 378.206 164.136 377.785 164.487C377.364 164.838 376.767 166.032 381.12 164.487C395.3 159.749 384.911 137.285 386.595 147.288ZM286.315 177.509C286.384 177.566 286.471 177.598 286.56 177.598C286.65 177.598 286.737 177.566 286.806 177.509C286.863 177.44 286.894 177.353 286.894 177.264C286.894 177.174 286.863 177.087 286.806 177.018C220.958 121.595 175.469 83.652 89.544 13.4871C89.4784 13.4227 89.3902 13.3867 89.2983 13.3867C89.2065 13.3867 89.1182 13.4227 89.0526 13.4871C88.9883 13.5527 88.9523 13.6409 88.9523 13.7328C88.9523 13.8246 88.9883 13.9128 89.0526 13.9785C167.326 79.8612 209.481 114.786 286.315 177.509ZM168.905 230.616L187.859 234.757C187.952 234.757 188.041 234.72 188.107 234.655C188.173 234.589 188.21 234.5 188.21 234.406C188.21 234.313 188.173 234.224 188.107 234.158C188.041 234.092 187.952 234.055 187.859 234.055L169.01 229.528C-48.8904 177.299 -62.6145 179.791 168.905 230.616ZM228.961 322.472C229.016 322.409 229.046 322.328 229.046 322.244C229.046 322.161 229.016 322.08 228.961 322.016C228.923 321.933 228.854 321.869 228.769 321.836C228.683 321.803 228.589 321.805 228.505 321.841C171.362 343.638 142.475 353.992 11.0604 406.081C11.0163 406.096 10.9757 406.121 10.9411 406.152C10.9065 406.184 10.8786 406.222 10.859 406.264C10.8393 406.307 10.8284 406.353 10.8268 406.4C10.8253 406.447 10.8331 406.493 10.8498 406.537C10.8887 406.629 10.9616 406.702 11.0532 406.741C11.1448 406.78 11.248 406.783 11.3412 406.747C152.443 353.466 213.342 328.615 228.961 322.472Z" fill="#2A2A2A"/>
<path fill-rule="evenodd" clip-rule="evenodd" d="M639.174 280.843C625.962 259.433 607.117 242.069 584.699 230.65C582.944 220.576 564.587 128.439 483.401 107.203C483.401 107.203 487.753 3.69346 417.132 0.218564C345.036 -3.29144 317.202 36.8279 317.237 36.7226C317.272 36.6173 274.626 60.8714 310.849 140.057C318.36 188.39 350.056 216.891 400.565 204.009L405.935 214.82C400.951 215.346 361.288 220.296 316.746 251.71C214.324 323.876 175.047 478.561 209.34 538.231C212.802 544.862 217.79 550.576 223.892 554.902C229.994 559.228 237.037 562.044 244.44 563.117C323.696 574.49 357.005 475.859 365.535 396.182C374.099 410.573 385.542 428.509 399.161 447.182C397.967 466.803 392.141 521.769 397.581 559.502C397.585 559.548 397.599 559.593 397.621 559.634C397.643 559.675 397.672 559.711 397.708 559.74C397.744 559.77 397.785 559.792 397.83 559.805C397.874 559.818 397.921 559.823 397.967 559.818C398.054 559.796 398.132 559.746 398.188 559.677C398.245 559.607 398.278 559.521 398.283 559.432C395.019 527.842 399.476 465.083 399.898 448.2C402.109 451.254 404.426 454.307 406.918 457.361C406.602 462.415 404.566 477.473 403.408 495.655C400.249 546.796 406.918 564.486 406.11 559.397C401.407 521.91 407.058 473.121 407.62 458.344C450.056 513.661 515.517 577.403 582.207 556.589C693.79 521.664 671.817 336.231 639.174 280.843ZM480.663 190.425C443.422 210.713 442.298 211.485 443.738 227.14C442.649 227.807 441.526 228.509 440.438 229.246H440.157C438.543 213.17 438.297 208.993 451.424 201.166L476.907 185.371L480.663 190.425ZM440.403 231.633H440.614L444.369 233.212C449.143 276.947 431.979 293.584 418.22 383.37C415.973 381.615 413.446 379.474 411.586 377.859C418.15 333.739 440.649 276.245 441.316 250.446C441.414 244.162 441.11 237.878 440.403 231.633ZM443 229.948L443.948 229.351V230.79L442.895 230.369L443 229.948ZM402.425 204.781C401.723 203.518 401.653 202.184 400.74 202.43C342.193 215.662 309.831 172.349 311.375 121.7C313.732 118.407 316.362 115.319 319.238 112.468C320.133 111.611 321.122 110.858 322.186 110.222C322.32 110.167 322.429 110.066 322.493 109.937C322.558 109.808 322.573 109.66 322.537 109.52C322.081 108.081 314.394 110.748 311.551 117.909C312.744 96.8489 318.957 67.3298 342.439 50.5169C342.439 50.5169 422.011 115.908 426.679 116.329C431.347 116.751 430.505 95.9714 441.105 92.4614C451.705 88.9514 461.709 93.023 461.884 107.133C461.682 112.632 460.047 117.983 457.142 122.656C454.236 127.328 450.16 131.161 445.317 133.774C454.629 151.353 465.04 168.328 476.486 184.599C445.879 202.71 441.105 203.939 438.718 212.012C436.393 209.897 433.838 208.048 431.102 206.501C417.974 199.411 403.618 203.658 402.425 204.781ZM402.811 205.554C403.337 205.554 418.957 200.008 438.086 212.819C437.789 214.122 437.613 215.45 437.56 216.786C425.837 208.853 412.99 208.958 405.97 213.276L402.811 205.554ZM318.08 253.57C365.008 219.909 406.707 216.048 406.707 216.048C408.006 216.048 406.707 214.574 406.707 214.223C416.254 210.713 428.574 213.802 437.806 218.19C437.849 221.592 438.072 224.99 438.473 228.369C437.841 228.088 423.169 221.98 422.783 222.788C422.397 223.595 438.122 230.404 438.473 230.545C420.923 241.882 418.887 245.322 438.894 232.651C439.509 238.479 439.755 244.341 439.631 250.201C438.964 275.157 417.307 330.229 411.024 377.087C403.611 370.44 396.657 363.299 390.21 355.711C379.996 344.093 377.504 342.198 374.029 324.718C370.975 309.239 333.067 272.068 329.241 282.598C323.029 277.052 319.203 281.019 320.186 285.792C316.36 284.107 314.183 288.284 314.57 292.812C312.534 291.303 309.234 292.566 309.936 299.516C310.884 308.642 317.413 324.718 319.308 330.264C328.294 356.308 338.297 360.485 334.541 371.155C328.645 387.863 297.897 412.784 283.857 423.7C299.898 363.433 311.06 339.46 309.971 339.074C308.883 338.688 297.827 370.032 295.931 376.245C286.381 369.148 275.226 364.521 263.456 362.776C251.686 361.03 239.668 362.221 228.469 366.241C248.757 322.682 277.679 282.563 318.08 253.57ZM227.943 367.47C239.227 363.941 251.153 362.961 262.862 364.599C274.57 366.238 285.769 370.455 295.651 376.947L294.492 380.457C270.168 364.837 244.194 363.714 225.907 371.892C226.574 370.524 227.241 368.979 227.943 367.47ZM244.861 560.028C237.938 559.013 231.357 556.363 225.662 552.298C219.967 548.232 215.322 542.869 212.113 536.652C187.543 493.9 205.619 418.716 225.416 373.156C243.176 366.136 268.553 366.733 294.282 381.299C290.526 394.076 287.858 401.727 282.944 424.437C269.255 435.178 255.953 444.304 241.456 458.274C235.901 463.278 230.942 468.908 226.679 475.051C226.622 475.121 226.591 475.207 226.591 475.297C226.591 475.387 226.622 475.474 226.679 475.543C226.745 475.607 226.833 475.643 226.925 475.643C227.017 475.643 227.105 475.607 227.171 475.543C231.499 469.515 236.504 464.003 242.088 459.116C265.57 437.073 347.002 384.985 336.121 362.17C329.101 347.638 325.275 343.075 320.712 329.983C317.273 321.316 314.343 312.456 311.937 303.447C309.726 293.444 312.744 292.286 314.815 295.023C318.325 314.083 341.351 347.673 348.266 364.521C353.197 374.725 358.644 384.672 364.587 394.321C355.531 472.419 322.186 571.506 244.861 560.028ZM581.47 554.307C541 566.908 500.74 547.568 465.219 517.101C401.547 462.415 354.057 371.822 350.547 363.609C344.685 349.148 316.009 303.939 316.921 291.057C317.764 278.983 333.067 306.993 340.789 319.137C340.943 319.416 341.201 319.623 341.507 319.712C341.813 319.801 342.142 319.765 342.421 319.611C342.701 319.457 342.907 319.199 342.996 318.893C343.085 318.587 343.049 318.258 342.895 317.979C337.766 308.2 331.813 298.877 325.1 290.109C319.764 284.002 321.028 274.455 335.945 293.619C348.266 309.45 348.16 314.96 350.442 313.697C350.576 313.623 350.694 313.524 350.79 313.405C350.885 313.286 350.956 313.149 350.999 313.002C351.041 312.855 351.054 312.701 351.037 312.549C351.02 312.398 350.972 312.251 350.898 312.117C345.573 302.155 338.99 292.919 331.312 284.634C329.417 274.56 368.694 308.677 371.993 325.034C372.916 331.119 374.737 337.034 377.399 342.584C381.856 350.938 402.565 372.489 413.13 381.194C459.287 419.804 494.703 418.997 541.421 440.302C557.672 447.744 570.694 456.519 576.31 468.382C576.338 468.442 576.377 468.496 576.426 468.541C576.474 468.586 576.531 468.62 576.593 468.643C576.655 468.666 576.721 468.677 576.787 468.674C576.852 468.671 576.917 468.656 576.977 468.628C577.037 468.6 577.091 468.561 577.136 468.513C577.181 468.464 577.215 468.407 577.238 468.345C577.261 468.284 577.271 468.218 577.269 468.152C577.266 468.086 577.251 468.021 577.223 467.961C571.572 455.781 558.409 446.901 541.912 439.109C536.331 436.512 530.329 434.09 524.152 431.773C525.696 420.611 527.942 408.537 530.189 397.515C553.48 391.376 578 391.658 601.144 398.333C624.288 405.007 645.193 417.824 661.638 435.423C655.917 489.899 633.207 538.231 581.47 554.307ZM661.849 435.178C624.327 394.321 568.483 384.844 530.259 397.2C530.68 395.129 531.207 392.742 531.628 390.811C576.275 379.825 629.908 390.495 662.2 428.298C662.241 428.327 662.29 428.342 662.34 428.342C662.391 428.342 662.44 428.327 662.481 428.298C662.305 430.65 662.095 432.931 661.849 435.178ZM531.768 390.144C541.526 345.883 549.318 329.808 548.3 329.421C548.243 329.37 548.168 329.341 548.09 329.341C548.012 329.341 547.937 329.37 547.879 329.421C535.524 364.206 527.767 389.829 523.485 431.668C477.855 414.609 455.707 412.573 418.817 383.546C433.559 296.849 450.863 275.894 446.089 233.669C461.568 240.127 465.71 240.197 445.844 231.457C445.844 231.036 445.563 228.86 445.457 228.228C462.586 216.996 460.55 216.505 445.212 226.052C443.983 212.433 444.334 212.012 481.119 190.952C485.791 197.225 490.818 203.225 496.177 208.923C496.177 208.923 544.545 215.171 573.643 226.473C599.406 238.126 623.274 256.624 637.841 281.58C652.723 307.063 667.149 368.874 662.411 427.842C630.119 388.144 575.187 378.561 531.768 390.144Z" fill="#2A2A2A"/>
</svg>
