<svg width="294" height="294" viewBox="0 0 294 294" fill="none" xmlns="http://www.w3.org/2000/svg">
<path fill-rule="evenodd" clip-rule="evenodd" d="M96.5308 14.3563C70.415 41.0937 31.967 97.3668 33.6251 100.061C39.1177 109.077 109.381 139.856 123.89 149.183C124.823 149.804 118.605 156.852 101.609 174.055C86.271 189.6 70.415 206.699 60.8808 217.581C48.8593 231.364 40.7758 227.738 107.101 262.87C163.893 292.924 173.634 295.929 181.821 285.876C189.179 276.757 208.455 256.237 234.156 229.914C266.49 196.959 266.179 197.788 248.354 190.43C242.447 188.046 176.95 159.132 159.125 151.36C150.109 147.422 146.379 152.396 193.014 105.968C208.559 90.5269 222.135 76.7427 229.078 69.3847C238.405 59.4359 233.12 55.4988 220.787 49.5917C192.703 36.2229 141.819 14.7708 119.33 6.27279C106.169 1.29839 110.21 0.365674 96.5308 14.3563ZM216.124 59.7478C215.606 61.1986 166.38 107.418 148.969 125.865C134.772 140.995 139.228 140.686 113.734 127.731C73.2132 107.212 52.9009 102.444 49.9992 99.9566C49.0665 98.8166 107.412 23.3713 111.35 15.9097C112.801 13.1116 112.905 13.008 116.739 14.6661C116.739 14.6661 217.368 56.5351 216.124 59.7478ZM245.245 204.006C229.389 219.758 234.467 214.265 171.665 280.279C160.265 275.512 88.6546 237.48 71.0368 228.36C74.3531 225.043 140.99 158.2 141.508 158.2C141.611 158.2 245.038 203.902 245.245 204.006Z" fill="#FFFFFF"/>
</svg>
