<svg width="408" height="308" viewBox="0 0 408 308" fill="none" xmlns="http://www.w3.org/2000/svg">
<path fill-rule="evenodd" clip-rule="evenodd" d="M359.919 110.088C360.262 110.794 361.567 111.008 362.423 111.158C369.4 112.399 399.638 113.041 402.548 110.537C405.095 108.397 403.682 73.4294 401.2 72.017C397.99 70.1124 362.98 69.7486 360.54 71.696C358.764 73.1726 357.651 105.144 359.919 110.088ZM361.075 72.1454C363.022 70.519 397.22 71.7388 400.301 73.2368C401.949 77.6452 403.019 105.337 401.414 109.274C398.803 111.072 366.81 111.008 361.225 109.274C359.042 104.031 359.855 73.1726 361.075 72.1454ZM274.812 68.4004C273.963 69.8522 272.817 71.108 271.449 72.0854C270.08 73.0628 268.521 73.7396 266.872 74.0714C266.822 74.0584 266.769 74.0572 266.718 74.0678C266.667 74.0785 266.619 74.1006 266.577 74.1326C266.536 74.1646 266.503 74.2056 266.48 74.2525C266.457 74.2994 266.445 74.3509 266.445 74.4031C266.445 74.4553 266.457 74.5068 266.48 74.5537C266.503 74.6006 266.536 74.6416 266.577 74.6736C266.619 74.7056 266.667 74.7277 266.718 74.7383C266.769 74.749 266.822 74.7477 266.872 74.7348C270.639 75.7192 275.539 72.2952 275.539 68.5288C275.556 68.4323 275.534 68.333 275.478 68.2527C275.422 68.1725 275.336 68.1178 275.24 68.1008C275.143 68.0838 275.044 68.1058 274.964 68.162C274.883 68.2181 274.829 68.3039 274.812 68.4004ZM257.328 49.2474V51.3874C257.328 51.6712 257.44 51.9433 257.641 52.144C257.842 52.3447 258.114 52.4574 258.398 52.4574C258.68 52.4519 258.949 52.3374 259.148 52.1379C259.348 51.9385 259.462 51.6695 259.468 51.3874V49.2474C259.468 48.9636 259.355 48.6915 259.154 48.4908C258.954 48.2901 258.682 48.1774 258.398 48.1774C258.114 48.1774 257.842 48.2901 257.641 48.4908C257.44 48.6915 257.328 48.9636 257.328 49.2474ZM278.664 51.2804C278.664 51.5642 278.776 51.8363 278.977 52.037C279.178 52.2377 279.45 52.3504 279.734 52.3504C280.017 52.3504 280.29 52.2377 280.49 52.037C280.691 51.8363 280.804 51.5642 280.804 51.2804V48.6268C280.804 48.343 280.691 48.0709 280.49 47.8702C280.29 47.6695 280.017 47.5568 279.734 47.5568C279.45 47.5568 279.178 47.6695 278.977 47.8702C278.776 48.0709 278.664 48.343 278.664 48.6268C278.578 49.547 278.664 50.617 278.664 51.2804Z" fill="#2A2A2ABF"/>
<path fill-rule="evenodd" clip-rule="evenodd" d="M402.741 206.088C402.6 205.849 402.402 205.65 402.163 205.51C400.323 204.611 390.307 205.061 388.232 205.146C388.595 149.014 359.021 114.004 316.092 103.967C308.217 102.127 308.196 101.998 307.982 102.127L306.526 98.1249C310.635 97.9965 313.995 94.8293 317.761 95.4713C320.608 95.9421 322.041 98.4673 324.845 99.5373C329.596 101.335 338.049 98.5743 340.638 94.0589C341.965 91.7049 340.788 89.2653 341.622 87.6389C343.12 86.3335 347.379 84.2363 348.599 82.7169C351.103 79.5925 351.21 72.5947 350.075 68.8069C348.028 64.5206 345.239 60.6302 341.836 57.3151C338.135 53.7489 334.854 49.7712 332.057 45.4595C328.611 38.5901 328.483 29.0885 325.637 21.9195C322.5 15.4466 317.643 9.9608 311.598 6.06212C305.694 1.89183 298.576 -0.2075 291.354 0.0915167C284.613 0.519517 281.981 3.38712 278.835 4.37152C275.689 5.35592 275.026 4.37152 269.911 6.61852C267.88 7.85586 266.072 9.42565 264.561 11.2623C263.919 11.9471 263.962 11.9899 262.87 12.0327C261.695 11.9443 260.515 11.9443 259.339 12.0327C257.336 12.4774 255.419 13.2512 253.668 14.3225C241.749 21.4701 244.959 35.8509 240.465 46.4225C237.404 53.6129 228.887 60.5251 228.16 68.0365C227.902 71.4903 228.645 74.9451 230.3 77.9875C235.5 87.1253 242.968 79.9563 246.842 85.5417C248.062 87.2965 248.982 89.0085 251.25 89.3509C254.139 89.7361 258.077 87.4463 260.431 85.7557C260.925 86.3324 261.486 86.8495 262.1 87.2965C264.186 88.7029 266.426 89.866 268.777 90.7633L263.341 98.3603C253.155 97.2047 237.511 100.5 227.432 103.603C227.068 101.035 223.901 79.8279 221.504 78.8007C218.187 77.3455 183.369 81.3901 181.251 83.6799C179.689 85.3491 182.492 117.128 185.531 121.879C185.98 122.607 187.521 122.628 188.377 122.649C183.369 126.073 178.533 129.54 176.8 130.803C175.451 126.138 168.368 101.463 165.757 97.4187C165.008 96.2417 164.323 96.2631 160.878 97.4187C158.914 87.6202 156.428 77.9336 153.431 68.4003C154.555 66.5527 155.453 64.5769 156.106 62.5153C156.903 59.2499 157.02 55.8553 156.448 52.5429C159.059 53.4203 174.66 57.7003 177.185 56.4591C177.863 55.9752 178.366 55.2844 178.619 54.4903C181.379 48.4555 186.109 27.8473 186.472 21.3203C186.622 20.4846 186.479 19.6227 186.066 18.8807C183.562 16.2699 149.878 6.57571 147.032 7.85972C145.299 8.65152 140.612 24.0381 140.12 25.8571C136.033 39.5745 138.108 36.5571 135.84 37.3489C133.229 38.2691 130.982 43.7689 130.062 46.3155C129.142 48.8621 128.179 52.2861 129.27 54.2977C128.827 55.1159 128.649 56.0514 128.76 56.9752C128.871 57.899 129.266 58.7655 129.891 59.4551C129.21 60.2137 128.767 61.1549 128.615 62.1626C128.462 63.1703 128.609 64.2005 129.035 65.1261C129.655 67.0735 133.529 68.3575 135.455 68.9139C133.934 73.0117 132.669 77.1999 131.667 81.4543C129.96 88.0561 128.596 94.7419 127.58 101.485C126.947 104.761 126.738 108.106 126.959 111.436L123.449 113.019C123.314 113.081 123.2 113.181 123.12 113.306C123.041 113.431 122.999 113.577 123 113.726C123 113.726 123.663 139.662 132.202 161.212C142.517 187.299 159.487 196.03 185.317 186.272C185.55 188.319 186.053 190.327 186.815 192.242C187.2 192.927 188.505 193.055 189.383 193.141C196.98 193.39 204.585 193.154 212.152 192.435L218.572 233.095C216.839 238.102 197.172 295.155 197.451 300.462C197.451 301.018 197.665 301.446 198.585 301.874C204.256 304.507 257.991 311.526 260.024 305.662C260.538 304.228 261.779 295.091 262.014 293.357L292.253 290.019L321.078 291.923C321.389 294.81 321.904 297.67 322.619 300.483C322.876 301.125 323.176 301.468 323.925 301.404C326.771 301.125 341.943 298.386 346.138 297.594C362.231 294.556 361.867 294.299 361.396 292.715C360.262 288.97 349.733 259.759 345.624 246.127C351.635 246.769 357.697 246.769 363.707 246.127C363.772 246.359 363.894 246.571 364.063 246.743C364.231 246.915 364.44 247.042 364.67 247.112C368.586 248.546 403.575 246.555 406.443 243.688C409.032 241.398 404.688 209.341 402.741 206.088ZM147.075 8.77992C147.31 8.41612 147.225 8.26631 149.108 8.54451C156.962 9.65731 182.642 17.9391 184.867 19.8865C185.295 24.7871 178.94 51.6869 176.436 54.9397C174.617 55.5603 162.547 52.4787 160.685 51.9865C146.519 48.2843 147.075 47.7065 143.844 46.9575C142.174 46.3797 142.003 46.3583 142.046 46.1229C142.051 46.07 142.076 46.0209 142.116 45.9853C142.155 45.9496 142.207 45.9301 142.26 45.9303C144.186 45.9303 149.343 45.7805 150.606 44.2825C150.885 43.9779 151.093 43.6155 151.215 43.2212C151.337 42.8268 151.371 42.4103 151.314 42.0015C151.257 41.5926 151.11 41.2014 150.884 40.8558C150.658 40.5103 150.358 40.2189 150.007 40.0025C147.256 38.9006 144.382 38.1389 141.447 37.7341C140.569 37.5629 139.499 37.2633 138.429 37.1349C139.906 30.4581 144.785 12.3323 147.075 8.77992ZM128.692 110.73V107.413C128.885 103.347 130.832 92.6679 131.41 89.7361C132.352 84.9853 132.566 83.9153 135.305 73.6005C135.305 73.3223 136.953 68.7213 136.953 68.7213C136.982 68.6414 136.995 68.5562 136.989 68.4712C136.982 68.3862 136.958 68.3035 136.918 68.2286C136.877 68.1537 136.821 68.0882 136.754 68.0367C136.686 67.9851 136.608 67.9486 136.525 67.9295C136.289 67.9295 130.725 66.5599 130.105 64.7837C129.484 63.0075 129.356 60.8675 130.918 59.9259C130.975 59.8842 131.022 59.8296 131.055 59.7663C131.087 59.7031 131.104 59.6331 131.104 59.5621C131.104 59.4911 131.087 59.4212 131.055 59.3579C131.022 59.2947 130.975 59.24 130.918 59.1983C130.234 58.6369 129.774 57.849 129.621 56.9775C129.468 56.106 129.632 55.2085 130.083 54.4475C130.576 53.4417 127.943 53.9339 131.068 46.7221C131.86 44.9459 134.535 39.4889 136.354 38.8897C137.964 38.7326 139.59 38.9148 141.126 39.4247C143.808 39.8472 146.445 40.5207 149.001 41.4363C149.164 41.5237 149.304 41.6474 149.411 41.7979C149.518 41.9483 149.588 42.1214 149.617 42.3037C149.646 42.486 149.633 42.6725 149.578 42.8487C149.523 43.0249 149.428 43.186 149.301 43.3195C148.361 43.8523 147.33 44.2078 146.262 44.3681C139.521 45.6949 140.719 44.2183 139.842 46.5081C137.267 46.3571 134.692 46.8191 132.33 47.8563C131.41 48.0489 131.795 48.6481 132.459 48.5411C135.326 47.6015 138.392 47.4463 141.34 48.0917C143.05 48.4042 144.722 48.8993 146.326 49.5683C147.781 50.1594 149.073 51.0915 150.092 52.2861C150.274 52.7388 150.342 53.2294 150.29 53.7145C150.238 54.1997 150.067 54.6646 149.793 55.0681C149.279 55.8599 146.797 55.3249 145.855 55.0681C144.571 54.6829 143.223 54.3619 141.96 53.9553C140.184 53.3989 140.377 53.2491 139.82 53.2919C137.858 53.57 135.938 54.0949 134.107 54.8541C134.055 54.86 134.005 54.8777 133.961 54.9058C133.917 54.9339 133.88 54.9716 133.853 55.0162C133.826 55.0607 133.809 55.1108 133.805 55.1627C133.8 55.2147 133.807 55.267 133.825 55.3157C133.844 55.3645 133.873 55.4084 133.911 55.444C133.949 55.4797 133.995 55.5062 134.045 55.5216C134.095 55.5369 134.147 55.5406 134.199 55.5325C134.25 55.5244 134.299 55.5046 134.342 55.4747C135.981 55.0126 137.656 54.6904 139.35 54.5117C140.313 54.5117 139.692 54.5117 142.11 55.4747C143.202 55.8813 144.25 56.2023 145.406 56.5875C146.149 56.8423 146.916 57.0215 147.696 57.1225C149.065 58.4065 150.05 61.4025 148.209 61.9375C147.486 62.0622 146.742 61.973 146.069 61.6807C141.169 60.0757 144.486 58.9201 133.85 61.1029C133.763 61.1137 133.683 61.1574 133.627 61.2251C133.572 61.2928 133.544 61.3792 133.55 61.4667C133.55 62.0231 133.914 61.6807 139.799 61.4667C140.511 61.3952 141.227 61.3952 141.939 61.4667C143.779 62.4083 146.519 64.0133 148.637 63.3927C151.227 62.5581 151.141 59.6905 149.472 57.5933C148.873 56.8657 148.808 57.0797 149.322 56.9941C149.698 56.9534 150.061 56.8354 150.388 56.6476C150.716 56.4597 151.002 56.2061 151.227 55.9027C151.733 55.2036 152.017 54.3676 152.04 53.5044C152.063 52.6412 151.824 51.7913 151.355 51.0663L154.95 52.1363C155.662 55.4509 155.603 58.8846 154.779 62.1729C154.55 62.9757 154.249 63.7564 153.88 64.5055C152.318 67.8011 151.74 67.9081 151.933 68.5287C154.907 78.198 157.357 88.0206 159.273 97.9537C151.205 100.779 136.418 107.284 128.692 110.73ZM298.031 259.438C307.19 259.823 326.878 260.53 335.909 260.251C335.288 262.948 334.903 264.66 334.796 265.045C330.494 265.045 302.696 260.23 298.031 259.438ZM339.375 258.347C333.64 259.695 259.19 256.785 252.812 254.067C253.476 249.273 259.725 222.331 260.987 216.831C266.604 218.55 272.447 219.416 278.321 219.399C280.461 220.512 283.992 222.438 286.111 223.443C285.875 225.262 285.298 229.564 286.582 230.848C287.866 232.132 317.419 242.982 343.334 246.02C342.289 250.212 340.966 254.33 339.375 258.347ZM260.302 206.837C259.317 206.538 258.406 206.035 257.627 205.36C257.071 204.761 257.264 202.942 257.627 202.086C257.826 201.67 258.179 201.348 258.612 201.187C259.134 200.96 259.691 200.823 260.26 200.781C260.43 200.777 260.594 200.721 260.732 200.621C260.869 200.521 260.973 200.381 261.028 200.221C261.084 200.06 261.09 199.886 261.044 199.722C260.999 199.559 260.904 199.413 260.773 199.304C259.521 198.25 258.649 196.814 258.291 195.217C258.291 194.04 258.74 192.82 260.623 191.75C262.763 191.921 269.183 197.228 272.158 194.168C275.133 191.108 271.623 183.939 274.94 183.34C278.257 182.741 279.926 192.713 280.504 193.804C282.43 197.549 287.609 200.224 290.562 203.306C288.779 209.685 287.35 216.158 286.282 222.694C282.002 220.405 278.835 218.414 278.514 218.414C274.041 218.265 262.036 217.023 258.911 213.835C258.356 213.406 257.975 212.789 257.842 212.099C257.708 211.41 257.829 210.696 258.184 210.09C258.411 209.688 258.718 209.336 259.086 209.056C259.454 208.777 259.875 208.575 260.324 208.463C260.507 208.419 260.67 208.313 260.785 208.164C260.901 208.014 260.963 207.83 260.96 207.642C260.958 207.453 260.891 207.271 260.772 207.124C260.652 206.978 260.487 206.877 260.302 206.837ZM284.142 135.575C280.166 135.195 276.173 135.037 272.179 135.104C271.666 135.104 271.238 135.361 271.088 135.853C270.724 137.223 264.668 181.735 264.368 183.918C263.084 162.518 261.758 139.983 260.773 123.463C268.22 135.34 268.862 136.517 270.039 135.682C274.008 132.419 277.761 128.902 281.274 125.153C281.916 127.529 282.944 131.402 284.142 135.575ZM303.723 128.064C302.268 125.924 300.834 123.784 300.299 122.992L307.211 105.594L303.723 128.064ZM308.709 103.496C316.803 105.165 324.695 107.698 332.249 111.051C331.928 112.056 327.798 124.682 322.855 139.748C320.586 139.47 307.596 137.886 303.595 137.458L308.709 103.496ZM299.957 125.367L303.338 130.46L302.268 137.308L298.951 136.88C299.443 132.237 299.785 127.828 299.957 125.367ZM359.042 147.944C359.015 150.73 358.743 153.509 358.229 156.247C350.889 154.364 286.86 138.614 280.354 142.316C277.101 144.199 266.401 188.112 265.374 192.071L264.604 191.686C267.985 167.91 272.479 136.731 272.479 136.645C279.776 135.81 350.075 143.771 359.042 147.944ZM321.699 192.692C316.905 192.371 297.881 191.429 293.879 194.083C293.258 194.511 293.002 194.596 290.797 202.514C287.951 199.497 283.179 196.651 281.574 193.291C280.846 191.814 279.669 181.029 274.683 181.863C267.964 182.997 276.545 196.843 266.615 192.563C267.257 189.845 277.786 144.52 280.718 142.851C286.924 139.32 354.612 156.547 363.172 158.965C362.68 164.187 356.388 192.05 355.233 197.143C344.15 195.013 332.953 193.527 321.699 192.692ZM288.743 42.9985C289.941 43.8117 289.899 45.7591 289.685 47.1715C288.187 56.7373 278.599 62.5367 271.944 53.3775C270.425 51.2375 269.248 44.4323 270.275 42.9343C270.96 42.0569 276.481 42.0141 277.594 42.0141C279.648 42.0355 287.673 42.3565 288.657 42.9985H288.743ZM263.256 44.5393C263.256 48.5625 261.907 55.2393 258.334 57.1653C252.577 60.1613 246.735 55.4105 246.585 49.2259C246.366 46.9681 246.474 44.6904 246.906 42.4635L247.12 42.3565C246.778 41.7573 261.822 41.5647 263.17 42.9129C263.216 43.4541 263.216 43.9981 263.17 44.5393H263.256ZM270.703 91.1271C274.405 92.1971 280.376 91.6835 283.243 88.7517C283.303 88.6881 283.337 88.6039 283.337 88.5163C283.337 88.4288 283.303 88.3445 283.243 88.2809C282.751 87.6817 283.243 88.8373 277.679 89.6719C272.115 90.5065 268.755 89.6719 263.127 86.0125C260.54 83.6358 258.603 80.6379 257.499 77.3027C255.195 71.6583 253.752 65.6996 253.219 59.6263C255.233 59.9561 257.3 59.6179 259.104 58.6633C260.855 57.6393 262.212 56.0566 262.956 54.1693C262.234 56.4308 261.641 58.7314 261.18 61.0601C261.08 61.3583 261.065 61.6785 261.136 61.9847C261.208 62.2909 261.364 62.571 261.586 62.7935C263.066 63.6979 264.808 64.075 266.53 63.8635C266.58 63.8765 266.633 63.8777 266.684 63.8671C266.735 63.8565 266.783 63.8343 266.825 63.8023C266.866 63.7703 266.899 63.7293 266.922 63.6824C266.945 63.6355 266.957 63.584 266.957 63.5318C266.957 63.4796 266.945 63.4281 266.922 63.3812C266.899 63.3344 266.866 63.2934 266.825 63.2613C266.783 63.2293 266.735 63.2072 266.684 63.1966C266.633 63.186 266.58 63.1872 266.53 63.2001C265.26 63.0588 264.035 62.6504 262.935 62.0017C262.442 61.6593 262.656 61.8733 262.806 61.1671C262.956 60.4609 265.738 50.2531 265.888 49.6111C266.551 49.6111 269.076 49.2687 269.076 48.6481C269.076 48.0275 267.065 47.8563 266.316 47.8991C266.316 47.6209 266.444 47.3855 266.508 47.1715C266.542 47.0864 266.541 46.9912 266.505 46.9069C266.469 46.8227 266.401 46.7562 266.316 46.7221C266.231 46.6881 266.135 46.6892 266.051 46.7253C265.967 46.7615 265.9 46.8296 265.866 46.9147C265.117 48.3699 265.631 47.8349 264.625 48.0917C265.011 46.113 265.011 44.0784 264.625 42.0997C263.405 40.2165 256.065 40.6445 253.668 40.7943C254.888 33.6253 259.639 30.0943 262.549 24.3591C263.365 23.0279 264.451 21.8832 265.738 20.9993C266.38 20.8281 267.643 22.4331 268.413 22.8183C269.183 23.2035 269.911 25.3221 270.553 26.0497C272.572 28.3482 274.898 30.3573 277.465 32.0203C279.605 33.5397 282.944 33.7751 284.399 35.7225C285.014 37.3785 285.311 39.1353 285.276 40.9013C282.516 40.7301 271.002 40.5589 269.633 42.5277C268.392 44.1113 268.927 51.3445 270.746 54.1265C275.325 61.0601 282.366 61.4881 287.866 55.2393C288.457 54.5017 288.96 53.6973 289.364 52.8425C293.472 59.2625 296.704 63.0931 296.854 70.6259C297.025 80.1703 294.328 95.9849 304.665 97.9751L306.441 102.876C297.881 124.404 298.33 123.056 298.33 123.27C298.33 123.484 297.924 129.69 297.175 136.795C293.066 136.367 289.235 136.003 285.833 135.725C285.576 134.847 282.387 123.505 282.451 123.27C282.772 122.2 281.167 120.103 279.926 118.241C275.272 111.502 270.189 105.069 264.711 98.9809L270.703 91.1271ZM263.17 99.5587C263.534 100.115 278.942 117.064 280.825 123.291C277.363 127.129 273.622 130.705 269.633 133.991C268.199 132.108 264.326 125.902 260.645 120.103C259.981 108.911 259.532 101.121 259.425 99.4945C260.623 99.4089 261.972 99.4731 263.084 99.5587H263.17ZM186.751 120.959C184.311 116.679 180.93 88.8587 181.722 84.5787C181.722 84.1935 181.722 84.0651 183.519 83.5729C191.18 81.5827 218.059 79.2929 220.884 80.2559C223.024 84.4289 227.71 111.671 226.597 115.866C224.415 117.62 193.042 122.05 186.665 120.959H186.751ZM188.249 191.365C185.788 186.528 183.969 155.52 185.188 154.343C187.007 152.588 221.162 151.09 224.393 152.353C226.533 156.847 229.572 184.453 228.309 188.198C225.399 190.38 193.299 192.52 188.163 191.365H188.249ZM237.105 155.498C238.646 155.092 249.388 152.353 250.672 151.582C251.593 151.047 252.641 152.781 234.644 103.389C236.784 101.421 255.487 98.8953 258.441 99.8155C258.441 100.993 261.244 150.94 263.448 191.022C262.4 190.509 260.88 189.717 259.917 190.252C255.894 192.392 255.637 195.944 258.612 199.411C258.056 199.547 257.54 199.812 257.106 200.184C256.671 200.555 256.329 201.024 256.108 201.551C255.765 202.354 255.619 203.228 255.682 204.099C255.746 204.97 256.016 205.813 256.472 206.559C256.971 207.036 257.541 207.434 258.162 207.736C257.523 208.164 257.018 208.765 256.707 209.469C256.427 210.076 256.26 210.728 256.215 211.395L237.105 155.498ZM290.369 288.671L262.421 291.774C262.549 290.746 265.695 265.944 266.701 257.534C272.522 258.047 279.541 258.497 287.052 258.903C288.294 274.333 290.476 284.99 290.284 288.671H290.369ZM291.846 288.499C292.146 283.62 288.122 259.16 288.101 258.946L290.241 259.053C297.517 260.401 316.263 263.718 318.296 264.061C318.981 270.951 320.693 287.001 321.1 290.297C289.192 288.243 292.638 288.414 291.739 288.499H291.846ZM405.394 242.703C403.254 244.415 371.818 247.283 365.334 245.871C362.83 241.013 361.054 210.026 362.273 208.849C364.114 207.072 398.268 205.617 401.457 206.858C403.468 211.331 406.571 239.044 405.309 242.703H405.394Z" fill="#2A2A2ABF"/>
<path fill-rule="evenodd" clip-rule="evenodd" d="M188.292 226.975C188.121 226.204 187.886 225.091 187.265 224.835C185.125 223.551 171.022 223.294 168.519 223.251C167.962 213.043 166.978 201.252 165.373 198.085C164.324 195.945 95.1595 195.731 92.7841 195.709C92.9553 184.196 92.9767 166.648 92.7841 155.049C95.8015 155.049 110.867 155.049 112.943 153.337C115.596 151.197 113.82 122.628 112.622 116.957C112.451 116.187 112.194 115.074 111.595 114.817C108.47 112.955 73.4171 112.506 70.9347 114.496C69.6293 115.588 69.1371 128.963 69.0729 130.653C64.1723 130.653 33.8699 130.033 23.0415 130.289V112.806C25.8449 112.806 42.3015 113.255 44.4415 111.457C47.0309 109.317 46.1749 74.3499 43.7139 72.9375C41.2529 71.5251 25.8877 71.0757 23.2341 71.0115C23.2341 67.9727 22.9987 60.3115 22.9773 60.1189C32.8855 59.7551 58.9935 60.5897 69.7577 60.5897C69.7577 63.9495 69.5651 75.9121 70.9775 78.9723C71.3199 79.6999 72.6253 79.9139 73.4813 80.0637C80.2865 81.2621 110.632 81.9683 113.606 79.4431C116.581 76.9179 114.505 44.9249 112.772 41.4795C112.657 41.2318 112.48 41.018 112.258 40.8589C109.027 38.9543 74.0163 38.7189 71.5981 40.5379C70.2071 41.7149 69.7363 57.0373 69.6935 58.8777C58.7581 58.8777 33.0353 58.0431 22.8489 58.4069C22.8489 54.2767 22.6349 50.1037 22.6349 45.9949C25.6737 45.9949 44.0349 45.7167 46.3247 43.7051C48.6145 41.6935 46.3247 9.27247 44.4843 5.76287C44.3698 5.51416 44.1835 5.30545 43.9493 5.16368C40.6965 3.34468 5.68607 3.90107 3.28927 5.91267C1.47027 7.49627 1.14927 39.4893 3.58887 44.4327C3.75695 44.7087 4.01334 44.9199 4.31647 45.0319C6.75607 46.0591 18.1409 46.0805 20.8159 46.0805C20.8159 55.6463 21.2439 63.4145 21.3295 71.0543C19.1895 71.0543 4.59467 70.7333 2.96827 72.0387C1.34187 73.3441 -0.626928 105.316 1.64147 110.559C1.96247 111.265 3.26787 111.522 4.12387 111.671C9.79539 112.491 15.5141 112.941 21.2439 113.02V144.606C19.2109 144.606 5.27947 144.349 3.71727 145.612C2.15507 146.874 0.100672 178.889 2.36907 184.132C2.69007 184.859 3.99547 185.095 4.85147 185.266C11.7851 186.593 42.0019 187.748 44.9765 185.266C47.9511 182.784 46.4103 150.705 44.7839 147.302C44.6681 147.049 44.4917 146.829 44.2703 146.66C41.9377 145.248 25.7165 144.777 22.8703 144.713V132.344C33.9555 132.066 63.0167 132.686 68.8803 132.708C68.8803 136.324 68.5379 149.956 70.0787 153.273C70.2185 153.56 70.4638 153.783 70.7635 153.894C73.5241 155.156 87.8835 155.413 90.8153 155.434C91.0935 167.076 91.0721 184.667 90.8153 196.094C62.0537 195.945 32.2221 196.244 26.2087 197.464C25.5667 197.592 24.5181 197.806 24.4753 198.705C24.4753 198.705 23.3197 217.195 22.7847 223.551C20.8801 223.551 8.36107 223.551 6.90587 224.835C5.45067 226.119 3.84567 258.176 6.19967 263.355C6.52067 264.061 7.82607 264.296 8.68207 264.446C15.5087 265.644 45.8325 266.351 48.8071 263.825C51.7817 261.3 49.6845 229.243 47.9725 225.862C48.0584 225.657 48.0858 225.433 48.0518 225.214C48.0178 224.995 47.9237 224.789 47.7799 224.621C45.3189 223.144 27.7495 223.016 24.8391 222.994C25.3527 216.574 26.4655 198.705 26.4655 198.705C33.7843 196.565 155.529 196.822 164.046 198.983C165.351 202.108 166.186 212.829 166.871 223.08C164.731 223.08 148.467 222.951 146.776 224.364C145.086 225.776 143.802 257.898 146.07 262.884C146.22 263.171 146.472 263.392 146.776 263.504C150.564 265.216 185.596 265.987 188.677 263.355C189.207 262.713 189.515 261.917 189.555 261.086C190.561 254.581 189.683 233.395 188.292 226.975ZM72.0475 40.7947C73.9521 39.2111 108.106 40.3453 111.274 41.8861C112.068 45.2637 112.527 48.7116 112.643 52.1795C98.9259 50.7885 80.3935 51.8585 70.9347 52.1795C70.9775 50.8955 71.3199 41.3083 72.0475 40.7305V40.7947ZM70.9133 53.3565C86.4925 53.8487 104.982 53.0355 112.707 53.1211C112.943 56.9089 113.777 74.6495 112.386 77.9237C110.803 79.0151 98.3267 79.2077 96.4221 79.2291C91.8211 79.2291 76.6485 79.2291 72.1973 77.9451C70.6565 74.2001 70.8063 57.5723 70.9133 53.2923V53.3565ZM3.84567 6.08387C5.75027 4.41467 39.9689 4.73567 43.0933 6.08387C43.7954 8.46914 44.2402 10.9227 44.4201 13.4027C30.5961 12.9951 16.7619 13.7108 3.05387 15.5427C3.07527 14.7723 3.22507 6.64027 3.84567 6.08387ZM4.97987 43.2129C3.24647 39.3395 3.01107 21.3207 3.05387 16.2703C4.85147 16.0563 43.7139 14.1303 44.5057 14.1303C44.9765 18.4103 46.6457 38.3765 45.1477 42.1215C42.2801 44.1973 10.0731 44.6039 4.97987 43.2129ZM3.50327 72.1671C5.45067 70.6049 39.5837 72.2955 42.7295 73.8791C43.4294 77.0724 43.8164 80.3263 43.8851 83.5947C44.0991 83.5947 13.6255 82.3963 2.26207 82.7601C2.32627 81.4975 2.83987 72.6807 3.50327 72.1671ZM43.8423 183.447C41.4883 184.988 9.92327 184.795 3.67447 182.805C2.13367 178.974 2.60447 161.405 2.81847 156.932C3.03247 156.932 32.2863 159.201 44.5271 157.767C44.7411 161.683 45.3189 180.109 43.8423 183.426V183.447ZM43.3287 147.367C44.0254 150.568 44.4195 153.828 44.5057 157.104C44.7197 157.104 14.3103 155.905 2.86127 156.248C2.95665 152.808 3.32156 149.38 3.95267 145.997C4.10247 145.569 3.95267 145.483 5.87867 145.269C13.5399 144.413 40.5895 145.976 43.3287 147.345V147.367ZM3.05387 109.296C1.53447 105.465 2.00527 88.0245 2.21927 83.4449C2.47607 83.4449 31.6443 85.7133 43.9279 84.2795C44.1419 88.2171 44.7411 106.535 43.2431 109.959C40.3541 111.843 8.21127 110.944 3.05387 109.296ZM48.2507 236.947C48.5075 240.927 49.3207 258.625 47.9297 261.985C45.6613 263.569 13.9679 263.89 7.74047 261.985C6.19967 258.261 6.34947 241.505 6.45647 237.033C20.2595 237.568 32.7999 236.947 48.2507 236.947ZM46.8169 225.947C47.6085 229.319 48.0743 232.759 48.2079 236.219C34.5975 234.85 15.4231 235.941 6.47787 236.348C6.47787 235 6.88447 225.434 7.59067 224.856C9.51667 223.272 43.6497 224.407 46.8169 225.947ZM71.3199 114.774C73.2887 113.127 107.443 114.368 110.546 115.866C111.36 119.379 111.833 122.962 111.958 126.566C102.671 126.074 79.5589 124.597 70.2285 125.753C70.3355 124.533 70.6993 115.352 71.3199 114.774ZM71.5339 151.861C69.9717 148.116 70.1429 130.996 70.2713 126.523C73.2887 126.223 95.1167 127.593 105.26 127.507C107.85 127.507 110.182 127.4 112.065 127.336C112.301 131.145 113.093 148.544 111.723 151.839C108.92 153.829 76.7341 153.508 71.5339 151.861ZM147.14 224.856C149.066 223.272 183.199 224.407 186.388 225.947C187.172 229.327 187.631 232.774 187.757 236.241C174.275 234.871 154.758 235.963 146.049 236.241C146.07 235.107 146.434 225.498 147.14 224.92V224.856ZM187.5 261.985C185.168 263.569 153.474 263.89 147.311 261.985C145.749 258.283 145.899 241.462 146.027 237.011C160.429 237.568 171.236 237.011 187.8 237.011C188.057 240.949 188.87 258.711 187.5 262.049V261.985Z" fill="#2A2A2ABF"/>
</svg>
