<svg width="92" height="35" viewBox="0 0 92 35" fill="none" xmlns="http://www.w3.org/2000/svg">
<path d="M77.8068 34.5765C75.3108 34.5765 73.0228 34.0325 70.9428 32.9445C68.8948 31.8566 67.2468 30.3365 65.9988 28.3845C64.7828 26.4005 64.1748 24.1285 64.1748 21.5686C64.1748 19.0085 64.7828 16.7525 65.9988 14.8005C67.2468 12.8485 68.9108 11.3285 70.9908 10.2405C73.0708 9.12055 75.3588 8.56055 77.8548 8.56055C80.3508 8.56055 82.6228 9.12055 84.6708 10.2405C86.7188 11.3285 88.3508 12.8485 89.5668 14.8005C90.7828 16.7525 91.3908 19.0085 91.3908 21.5686C91.3908 24.1285 90.7828 26.4005 89.5668 28.3845C88.3508 30.3365 86.7028 31.8566 84.6228 32.9445C82.5748 34.0325 80.3028 34.5765 77.8068 34.5765ZM77.8068 26.3205C78.6708 26.3205 79.4388 26.1125 80.1108 25.6965C80.7828 25.2805 81.2948 24.7205 81.6468 24.0165C82.0308 23.2805 82.2228 22.4486 82.2228 21.5205C82.2228 20.5926 82.0308 19.7765 81.6468 19.0725C81.2948 18.3685 80.7828 17.8085 80.1108 17.3925C79.4388 16.9765 78.6708 16.7685 77.8068 16.7685C76.9428 16.7685 76.1748 16.9765 75.5028 17.3925C74.8308 17.8085 74.3028 18.3685 73.9188 19.0725C73.5348 19.7765 73.3428 20.5926 73.3428 21.5205C73.3428 22.4486 73.5348 23.2805 73.9188 24.0165C74.3028 24.7205 74.8308 25.2805 75.5028 25.6965C76.1748 26.1125 76.9428 26.3205 77.8068 26.3205Z" fill="#2A2A2A"/>
<path d="M32.4551 34.0004V0.400391H42.8231V13.2644H46.7591C47.4311 13.2644 48.0231 13.1044 48.5351 12.7844C49.0791 12.4644 49.5111 12.0004 49.8311 11.3924C50.1511 10.7844 50.3111 10.0644 50.3111 9.23239V0.400391H60.6791V9.42439C60.6791 11.3764 60.1991 13.1844 59.2391 14.8484C58.3111 16.4804 57.0631 17.8404 55.4951 18.9284L58.3751 25.0244C58.5351 25.3444 58.7591 25.6004 59.0471 25.7924C59.3351 25.9844 59.6711 26.0804 60.0551 26.0804H62.5991V34.0004H57.1751C55.1271 34.0004 53.4951 33.6484 52.2791 32.9444C51.0631 32.2084 50.1351 31.2164 49.4951 29.9684L45.3671 21.3284C45.2391 21.3284 45.1111 21.3284 44.9831 21.3284C44.8551 21.3284 44.7271 21.3284 44.5991 21.3284H42.8231V34.0004H32.4551Z" fill="#2A2A2A"/>
<path d="M0.111328 34.0004V0.400391H10.4793V13.2644H14.4153C15.0873 13.2644 15.6793 13.1044 16.1913 12.7844C16.7353 12.4644 17.1673 12.0004 17.4873 11.3924C17.8073 10.7844 17.9673 10.0644 17.9673 9.23239V0.400391H28.3353V9.42439C28.3353 11.3764 27.8553 13.1844 26.8953 14.8484C25.9673 16.4804 24.7193 17.8404 23.1513 18.9284L26.0313 25.0244C26.1913 25.3444 26.4153 25.6004 26.7033 25.7924C26.9913 25.9844 27.3273 26.0804 27.7113 26.0804H30.2553V34.0004H24.8313C22.7833 34.0004 21.1513 33.6484 19.9353 32.9444C18.7193 32.2084 17.7913 31.2164 17.1513 29.9684L13.0233 21.3284C12.8953 21.3284 12.7673 21.3284 12.6393 21.3284C12.5113 21.3284 12.3833 21.3284 12.2553 21.3284H10.4793V34.0004H0.111328Z" fill="#2A2A2A"/>
</svg>
