<svg width="367" height="368" viewBox="0 0 367 368" fill="none" xmlns="http://www.w3.org/2000/svg">
<path fill-rule="evenodd" clip-rule="evenodd" d="M177.515 11.1317C175.951 24.1679 176.055 58.0619 178.349 62.4421C183.668 73.0796 188.778 64.7364 189.926 43.67C190.864 25.315 191.698 16.4504 191.803 11.7574C192.22 1.32847 178.558 2.16284 177.515 11.1317ZM247.285 14.0518C239.984 16.9719 199.207 91.1217 199.207 101.551C199.207 104.471 203.692 105.409 207.133 103.115C210.575 100.821 218.814 88.0973 228.93 69.2209C240.193 48.363 252.186 26.6708 255.106 22.082C259.695 14.7818 255.732 10.7145 247.285 14.0518ZM110.04 30.008C108.163 31.3638 108.475 31.9896 114.107 42.7314C135.591 83.1957 136.738 87.993 147.375 86.6373C155.406 85.5943 155.406 85.0729 144.56 65.0493C132.149 41.8971 125.37 30.9467 122.972 29.6952C120.26 28.1308 112.334 28.3395 110.04 30.008ZM283.16 36.7869C277.111 39.2898 245.095 77.2512 245.095 81.9442C245.095 90.7045 260.947 78.2941 289.209 47.5287C297.656 38.2469 294.319 32.1981 283.16 36.7869ZM69.1583 57.4362C59.668 59.3135 73.747 76.5212 84.8017 76.5212C93.6663 76.5212 93.9792 72.3496 85.7403 64.5279C80.8387 59.7306 75.9371 56.0804 69.1583 57.4362ZM320.6 72.4539C314.76 75.5826 307.355 82.2571 294.319 90.9131C278.884 101.133 262.511 112.71 257.609 116.985C249.162 124.286 256.149 126.163 266.682 119.28C270.228 116.985 280.97 110.311 290.565 104.575C313.404 90.8088 336.765 75.4782 336.765 74.4354C336.869 70.368 326.858 69.1166 320.6 72.4539ZM178.558 78.8156C176.681 80.6928 176.994 90.6002 178.975 92.5817C186.067 99.6735 195.244 86.8458 188.674 79.0241C187.214 77.2512 180.227 77.1469 178.558 78.8156ZM93.2492 88.4101C90.7463 90.1831 91.7891 91.6431 108.371 109.372C127.873 130.23 129.646 131.273 138.094 127.414C141.952 125.641 141.535 124.807 133.192 115.317C111.813 91.2259 100.132 83.4043 93.2492 88.4101ZM34.0127 111.25C30.154 114.17 32.5527 115.63 56.3307 125.016C80.213 134.402 93.2492 141.076 111.5 152.861C121.824 159.536 139.032 159.848 133.609 153.174C121.303 138.573 42.0431 105.097 34.0127 111.25ZM324.355 130.856C266.682 151.505 262.198 153.695 266.161 157.658C268.038 159.536 270.854 159.223 282.743 155.677C360.543 132.525 362.003 133.359 352.513 126.476C347.611 122.93 345.421 123.243 324.355 130.856ZM229.451 135.132C221.525 142.015 220.795 144.205 225.697 145.561C235.604 148.168 249.475 134.506 249.37 134.61C249.892 134.089 250.309 133.359 250.205 132.629C250.205 131.899 249.788 131.169 249.266 130.647C244.156 126.372 237.794 127.832 229.451 135.132ZM177.202 147.647L175.012 155.99C170.736 172.676 158.952 187.068 149.67 187.068C142.891 187.068 146.958 192.804 154.571 194.055C164.687 195.62 173.656 212.723 174.074 229.41C174.386 240.673 185.858 240.881 188.048 232.747C193.784 211.68 198.477 203.233 210.679 193.847C218.188 188.111 218.292 187.068 211.931 182.792C201.71 175.909 199.312 172.259 193.263 154.321C186.484 134.089 178.871 141.493 177.202 147.647ZM28.694 155.364C26.6082 157.45 26.6082 160.266 28.7983 164.854C31.5098 170.486 35.2642 171.738 65.7168 176.118C75.7285 177.578 88.139 179.768 93.2492 181.019C103.782 183.626 104.721 183.105 103.991 176.43C103.261 170.173 100.967 167.774 94.292 165.689C84.3846 162.769 81.8816 162.247 60.7109 158.91C49.5519 157.137 38.6015 155.26 36.2028 154.738C30.467 153.487 30.6755 153.487 28.694 155.364ZM188.257 175.388C190.343 178.516 193.576 181.332 197.851 183.835C204.839 187.902 205.465 188.632 202.336 189.675C199.207 190.718 191.177 197.706 187.527 202.607L184.294 206.987L181.374 202.294C178.454 197.706 171.675 191.97 167.608 190.718C165.73 190.092 166.043 189.571 170.736 185.504C179.914 177.473 182 165.584 183.981 169.026C184.607 169.86 186.484 172.78 188.257 175.388ZM244.26 184.982C239.776 186.755 245.825 196.663 252.186 197.81C263.032 199.896 310.797 199.687 310.797 197.601C310.797 194.577 305.061 188.424 301.098 187.172C295.258 185.399 248.015 183.522 244.26 184.982ZM316.429 188.528C314.343 194.055 323.312 199.061 338.955 200.938C354.807 202.816 356.893 201.669 350.74 194.264C345.525 188.215 318.306 183.626 316.429 188.528ZM110.978 195.098C105.451 200.626 113.064 211.367 122.137 210.846C128.395 210.533 129.959 207.3 127.143 200.521C124.849 194.785 114.733 191.448 110.978 195.098ZM68.8454 200.208C56.0179 202.816 38.08 205.84 28.1726 206.883C14.7192 208.447 10.4434 209.595 10.4434 211.993C10.4434 216.165 19.308 220.962 25.461 220.128C27.7554 219.815 35.7857 218.772 43.2945 217.938C73.8513 214.183 94.9178 208.656 92.832 204.902C89.8076 199.27 81.3601 197.601 68.8454 200.208ZM261.885 226.385C246.972 233.581 264.597 245.157 280.657 238.691C285.663 236.71 281.179 230.661 276.173 228.471C267.934 224.821 265.848 224.508 261.885 226.385ZM227.365 233.79C221.317 235.771 219.648 241.09 224.132 244.636C225.801 245.992 234.874 254.022 244.365 262.469C283.473 297.51 294.841 305.958 299.742 303.768C307.564 300.222 301.724 293.235 260.217 257.359C237.69 237.857 230.494 232.747 227.365 233.79ZM130.585 241.403C124.119 244.636 64.6738 306.584 64.6738 310.025C64.6738 316.7 78.753 314.823 85.6361 307.209C90.8505 301.474 106.807 284.787 129.125 261.948C148.94 241.611 149.67 231.808 130.585 241.403ZM296.509 244.949C293.172 246.409 290.773 251.206 292.755 252.666C319.557 271.438 332.802 275.088 332.802 263.616C332.698 257.15 303.288 242.029 296.509 244.949ZM64.6738 257.046C49.0305 264.972 48.6133 265.389 52.6806 267.997C60.398 273.003 97.4208 256.42 90.2247 251.102C85.8446 247.869 80.1087 249.224 64.6738 257.046ZM182.208 257.255C177.411 260.905 175.638 277.383 187.423 277.591C192.011 277.696 195.453 272.898 195.244 264.868C195.036 256.525 188.257 252.562 182.208 257.255ZM147.688 270.812C140.179 279.99 121.929 310.547 121.929 313.988C121.929 323.166 139.762 302.412 154.571 275.714C160.724 264.868 155.51 261.218 147.688 270.812ZM222.047 271.125C217.771 276.34 255.941 323.687 262.094 320.871C267.517 318.368 265.744 315.24 246.763 293.548C227.053 270.708 224.341 268.309 222.047 271.125ZM182.729 295.32C178.141 298.241 175.012 357.998 179.392 361.44C188.883 369.157 192.95 358.416 192.846 325.877C192.846 296.572 190.76 290.315 182.729 295.32Z" fill="#B6C7F3"/>
</svg>
